<svg xmlns="http://www.w3.org/2000/svg" viewBox="-42 -42 920 359"><defs><style>.cls-1{font-size:30.15px;font-family:IowanOldStyleBT-Roman, IowanOldSt BT;}.cls-2{font-size:25px;}.cls-2,.cls-3{font-family:IowanOldStyleBT-Bold, IowanOldSt BT;font-weight:700;}.cls-3{font-size:205px;}.cls-4{fill:#29aae2;}.cls-5{fill:#0e72ba;}.cls-6{fill:#3cb54a;}</style></defs><title>CPM_Text_Logo</title><g id="Layer_2" data-name="Layer 2"><g id="Layer_1-2" data-name="Layer 1"><text class="cls-1"><tspan x="327.41" y="244.64">continuous | precision | medicine</tspan></text><text class="cls-2" transform="translate(795 72.13)">TM</text><text class="cls-3" transform="translate(314 198.13)">CPM</text><polygon class="cls-4" points="40.49 175.55 39.95 170.89 39.65 166.21 39.6 161.51 39.6 156.82 39.85 152.13 40.32 147.46 41 142.82 41.85 138.2 42.91 133.63 44.14 129.1 45.59 124.64 47.2 120.23 48.9 116.16 48.94 116.07 47.95 120.66 47.17 125.29 46.64 129.95 46.2 134.64 46.2 139.33 46.5 144.02 46.93 148.69 47.58 153.34 48.5 157.95 49.63 162.5 51 166.99 52.61 171.4 54.42 175.73 56.48 179.95 58.74 184.06 61.19 188.06 63.87 191.92 66.72 195.64 69.77 199.21 73 202.62 76.39 205.86 79.96 208.91 83.67 211.78 87.53 214.46 91.51 216.95 95.61 219.24 99.8 221.35 104.07 223.3 108.41 225.1 112.81 226.7 117.28 228.13 121.81 229.39 126.38 230.46 130.99 231.34 135.63 232.05 140.29 232.58 144.97 232.91 149.66 233.4 154.36 233.4 159.05 232.79 163.72 232.38 168.38 231.79 173.01 231.01 177.6 230.04 182.15 228.9 186.65 227.57 191.1 226.06 195.48 224.38 199.79 222.52 204.03 220.5 208.18 218.32 212.24 215.95 216.21 213.45 220.06 210.77 223.81 207.95 227.44 204.98 230.96 201.87 234.35 198.62 237.61 195.25 240.74 191.75 243.71 188.11 246.55 184.37 249.22 180.52 251.75 176.56 254.11 172.5 256.31 168.36 258.35 164.13 260.22 159.83 261.9 155.45 263.43 151.01 264.77 146.51 265.92 141.96 266.9 137.37 267.69 132.74 268.31 128.09 268.74 123.42 268.97 118.73 268.97 114.03 268.9 109.34 268.57 104.66 268.06 100 267.37 95.35 266.49 90.74 265.44 86.17 265.04 84.62 266.8 88.97 268.41 93.38 269.84 97.85 271.13 102.37 272.27 106.92 273.24 111.51 274.06 116.13 274.73 120.78 275.24 125.44 275.59 130.13 275.57 134.81 275.57 139.51 275.67 144.2 275.38 148.88 274.93 153.56 274.32 158.21 273.55 162.84 272.63 167.44 271.56 172.01 270.32 176.54 268.93 181.02 267.4 185.46 265.7 189.84 263.87 194.16 261.88 198.41 259.77 202.6 257.49 206.71 255.09 210.74 252.56 214.69 249.88 218.54 247.07 222.3 244.13 225.97 241.09 229.53 237.91 232.99 234.63 236.34 231.22 239.57 227.72 242.7 224.11 245.7 220.4 248.57 216.59 251.31 212.69 253.92 208.71 256.41 204.63 258.74 200.47 260.91 196.22 262.91 191.89 264.7 187.48 266.33 183.02 267.78 178.5 269.03 173.92 270.09 169.31 270.94 164.66 271.62 160 272.11 155.31 272.45 150.62 272.45 145.92 272.33 141.24 272.03 136.57 271.52 131.94 270.8 127.33 269.91 122.77 268.81 118.25 267.54 113.8 266.05 109.41 264.38 105.09 262.55 100.85 260.53 96.71 258.33 92.65 255.96 88.72 253.41 84.87 250.71 81.16 247.84 77.56 244.82 74.09 241.67 70.77 238.35 67.58 234.9 64.54 231.33 61.66 227.62 58.92 223.81 56.36 219.88 53.97 215.84 51.74 211.71 49.7 207.48 47.83 203.18 46.13 198.8 44.64 194.35 43.33 189.84 42.21 185.29 41.28 180.69 40.54 176.05 40.49 175.55"/><polygon class="cls-5" points="0.43 128.26 0.94 123.59 1.63 118.95 2.54 114.35 3.63 109.78 4.89 105.27 6.37 100.82 8.02 96.43 9.84 92.11 11.86 87.88 14.05 83.73 16.4 79.68 18.92 75.73 21.61 71.9 24.46 68.19 27.45 64.59 30.6 61.13 33.88 57.8 37.3 54.61 40.85 51.58 44.52 48.69 48.32 45.97 52.23 43.41 56.23 41.01 60.33 38.79 64.53 36.75 68.8 34.88 73.15 33.2 77.56 31.69 82.04 30.39 86.56 29.26 91.13 28.34 95.73 27.61 100.36 27.08 105 26.73 109.66 26.59 114.32 26.65 118.97 26.89 123.61 27.34 128.22 28 132.8 28.83 137.35 29.87 141.84 31.1 146.28 32.51 150.66 34.12 154.97 35.9 159.2 37.86 163.34 40.01 167.39 42.34 171.34 44.83 175.18 47.48 178.91 50.29 182.52 53.26 186 56.39 189.35 59.65 192.55 63.05 195.62 66.58 198.52 70.25 199.9 72.09 196.44 68.95 192.84 65.97 189.1 63.17 185.21 60.58 181.2 58.2 177.08 56.02 172.84 54.05 168.52 52.31 164.11 50.78 159.63 49.51 155.09 48.45 150.51 47.62 145.88 47.05 141.24 46.7 136.58 46.59 131.92 46.74 127.28 47.13 122.66 47.74 118.08 48.59 113.55 49.69 109.09 51.02 104.69 52.57 100.38 54.35 96.16 56.35 92.06 58.57 88.06 60.97 84.16 63.55 80.36 66.25 76.67 69.13 73.1 72.14 69.66 75.3 66.33 78.59 63.14 82.01 60.1 85.56 57.18 89.22 54.43 93.01 51.81 96.89 49.36 100.88 47.06 104.97 44.93 109.14 42.96 113.39 41.18 117.73 39.55 122.13 38.09 126.58 36.82 131.1 35.73 135.66 34.83 140.27 34.1 144.9 33.55 149.56 33.19 154.24 33 158.93 33.02 163.63 33.2 168.32 33.59 173 34.16 177.65 34.91 182.29 35.84 186.88 36.94 191.44 38.23 195.96 39.71 200.41 41.34 204.8 43.16 209.12 45.14 213.37 47.3 217.53 49.61 221.61 52.08 225.59 54.7 229.47 57.47 233.24 60.4 236.89 63.46 240.43 66.66 243.84 70 247.11 73.46 250.25 77.04 253.25 80.74 256.11 84.54 258.82 88.46 261.36 92.47 263.76 96.57 265.98 100.76 268.04 105.02 269.93 109.35 271.65 113.75 273.19 118.21 274.57 119.73 275 115.12 274.35 110.53 273.53 105.98 272.54 101.46 271.4 96.98 270.11 92.55 268.66 88.17 267.07 83.85 265.31 79.58 263.42 75.39 261.38 71.25 259.21 67.21 256.89 63.24 254.43 59.36 251.83 55.56 249.12 51.86 246.26 48.27 243.27 44.77 240.18 41.37 236.96 38.09 233.63 34.93 230.18 31.88 226.64 28.96 222.98 26.16 219.23 23.48 215.39 20.93 211.46 18.53 207.44 16.25 203.34 14.12 199.17 12.13 194.93 10.3 190.61 8.59 186.25 7.03 181.82 5.63 177.35 4.39 172.82 3.3 168.26 2.35 163.66 1.58 159.03 0.95 154.38 0.47 149.72 0.16 145.03 0 140.34 0.02 135.65 0.22 130.96 0.43 128.26"/><polygon class="cls-6" points="91.56 7.99 96.01 6.48 100.5 5.13 105.05 3.95 109.63 2.92 114.23 2.02 118.87 1.31 123.53 0.74 128.21 0.33 132.89 0.08 137.59 0 142.28 0.08 146.97 0.31 151.65 0.7 156.31 1.25 160.94 1.96 165.56 2.82 170.14 3.83 174.68 5.03 179.19 6.34 183.64 7.83 188.03 9.47 192.38 11.25 196.66 13.18 200.87 15.26 205.01 17.46 209.07 19.82 213.03 22.34 216.87 25.04 220.59 27.89 224.2 30.9 227.68 34.05 231.02 37.34 234.22 40.77 237.27 44.34 240.18 48.03 242.92 51.84 245.5 55.76 247.91 59.79 250.15 63.91 252.21 68.13 254.1 72.43 255.8 76.8 257.31 81.25 258.64 85.75 259.78 90.3 260.73 94.89 261.49 99.53 262.04 104.19 262.41 108.87 262.37 113.56 262.37 118.25 262.31 122.94 261.88 127.61 261.24 132.26 260.43 136.89 259.41 141.47 258.2 146 256.81 150.49 255.22 154.9 253.46 159.25 251.5 163.52 249.38 167.71 247.07 171.79 244.6 175.78 241.96 179.66 239.17 183.44 236.22 187.09 233.11 190.6 229.86 193.99 226.47 197.24 222.94 200.33 219.29 203.28 215.52 206.08 211.64 208.72 207.65 211.19 203.55 213.48 199.36 215.59 195.09 217.54 190.74 219.3 186.32 220.88 181.84 222.28 177.3 223.47 172.72 224.49 168.1 225.3 163.44 225.92 163.26 225.93 167.73 224.5 172.12 222.83 176.43 220.98 180.63 218.89 184.71 216.58 188.68 214.07 192.51 211.36 196.2 208.46 199.74 205.38 203.12 202.12 206.32 198.68 209.34 195.09 212.16 191.34 214.8 187.46 217.24 183.45 219.46 179.31 221.48 175.08 223.28 170.74 224.84 166.32 226.18 161.82 227.27 157.25 228.15 152.64 228.78 147.99 229.17 143.31 229.36 138.62 229.36 133.93 229.01 129.24 228.56 124.57 227.92 119.92 227.11 115.3 226.11 110.71 224.94 106.17 223.59 101.67 222.06 97.23 220.36 92.86 218.47 88.56 216.41 84.34 214.2 80.2 211.82 76.16 209.28 72.21 206.59 68.36 203.73 64.64 200.75 61.02 197.61 57.53 194.35 54.15 190.94 50.92 187.41 47.83 183.77 44.87 180 42.06 176.14 39.41 172.17 36.9 168.09 34.57 163.94 32.39 159.69 30.39 155.37 28.55 150.99 26.87 146.54 25.38 142.03 24.09 137.47 22.95 132.88 22 128.25 21.24 123.59 20.65 118.91 20.26 114.22 19.98 109.53 19.98 104.84 20.2 100.16 20.55 95.5 21.08 90.86 21.81 86.25 22.71 81.69 23.8 77.17 25.08 72.71 26.53 68.3 28.15 63.97 29.95 59.7 31.91 55.52 34.04 51.44 36.35 47.44 38.81 43.54 41.43 39.76 44.21 36.09 47.13 32.53 50.19 29.1 53.39 27.96 54.51 30.85 50.81 33.87 47.22 37.02 43.74 40.28 40.37 43.66 37.11 47.15 33.97 50.73 30.93 54.43 28.05 58.21 25.27 62.09 22.63 66.06 20.12 70.11 17.74 74.24 15.52 78.44 13.43 82.71 11.48 87.05 9.68 91.56 7.99"/></g></g></svg>