<svg xmlns="http://www.w3.org/2000/svg" width="300px" height="117px" viewBox="-42 -42 920 359"><defs><style>.cls-1{fill:#29aae2;}.cls-2{fill:#0e72ba;}.cls-3{fill:#3cb54a;}</style></defs><title>CPM_Text_Logo_Expand</title><g id="Layer_2" data-name="Layer 2"><g id="Layer_1-2" data-name="Layer 1"><path d="M339.61,241.74l.74,1.12a12.25,12.25,0,0,1-2.81,1.65,7,7,0,0,1-2.62.56A6,6,0,0,1,330.2,243a8,8,0,0,1,6.12-13.26,5.86,5.86,0,0,1,2.64.48,1.47,1.47,0,0,1,.93,1.33,1.61,1.61,0,0,1-.38,1.07,1.1,1.1,0,0,1-.86.45,6.49,6.49,0,0,1-1.36-.74,4.37,4.37,0,0,0-2.29-.74,3.72,3.72,0,0,0-3,1.38,5.75,5.75,0,0,0-1.13,3.75,7.18,7.18,0,0,0,1.36,4.66A4.6,4.6,0,0,0,336,243a5.43,5.43,0,0,0,1.79-.31A7.47,7.47,0,0,0,339.61,241.74Z"/><path d="M349.34,229.77a6.9,6.9,0,0,1,5.15,2.08,7.09,7.09,0,0,1,2,5.16,8.08,8.08,0,0,1-2.15,5.71,6.94,6.94,0,0,1-5.3,2.32,6.84,6.84,0,0,1-5.17-2.12,7.45,7.45,0,0,1-2-5.36,7.64,7.64,0,0,1,2.2-5.51A7.07,7.07,0,0,1,349.34,229.77Zm-.38,1.55a3.93,3.93,0,0,0-3.17,1.44,5.84,5.84,0,0,0-1.2,3.86,8.69,8.69,0,0,0,1.33,5,4,4,0,0,0,3.47,1.93,4,4,0,0,0,3.29-1.53,6.48,6.48,0,0,0,1.23-4.17,7.63,7.63,0,0,0-1.39-4.73A4.28,4.28,0,0,0,349,231.32Z"/><path d="M363,229.6l-.18,2.47a16.61,16.61,0,0,1,2.89-1.75,5.64,5.64,0,0,1,2.26-.54,4.13,4.13,0,0,1,3.25,1.22,5.36,5.36,0,0,1,1.09,3.67s0,.44,0,1.3,0,1.71,0,2.56q0,.54,0,1.36c0,.54,0,.92,0,1.11a5,5,0,0,0,.29,2.15,1.19,1.19,0,0,0,1.12.5h.35v1l-2-.12-1.13,0q-.71,0-1.53,0t-1.68.11v-1h.22q1.88,0,1.91-3.45c0-.13,0-.23,0-.29l0-3.16v-.53a6.91,6.91,0,0,0-.63-3.61,2.49,2.49,0,0,0-2.18-.89,5.26,5.26,0,0,0-1.89.4,11.13,11.13,0,0,0-2.2,1.2q-.06,1.53-.09,2.89t0,2.46v2a6.33,6.33,0,0,0,.29,2.46,1.17,1.17,0,0,0,1.13.52h.38v1l-2-.12-1.2,0-1.16,0-2,.12v-1h.28q1.84,0,1.85-3.58c0-.35,0-.63,0-.82l0-3.61v-1.46a5.12,5.12,0,0,0-.22-1.89.82.82,0,0,0-.81-.45l-.3,0-.39.09-.18-.91a18.45,18.45,0,0,0,2.22-.56A24.27,24.27,0,0,0,363,229.6Z"/><path d="M379.73,227.4l1,.29c-.06.54-.11,1-.14,1.45s-.06.85-.07,1.26h1l1.71,0,1.75-.07-.35,1.6q-.94-.07-1.77-.1l-1.66,0h-.69q-.09,2.53-.12,3.88c0,.9,0,1.64,0,2.23a12.84,12.84,0,0,0,.46,4.34,1.64,1.64,0,0,0,1.63,1,3.34,3.34,0,0,0,1.08-.21,9.76,9.76,0,0,0,1.45-.68l.49,1a16,16,0,0,1-2.56,1.29,5.8,5.8,0,0,1-2,.43,2.56,2.56,0,0,1-2.3-1.08,6.45,6.45,0,0,1-.72-3.48q0-.47.07-3.36t.07-5.31h-.38l-1.68,0v-1.06a4.34,4.34,0,0,0,2.38-1.07A5,5,0,0,0,379.73,227.4Z"/><path d="M391.76,229.6q0,.56,0,1.59-.19,5.92-.19,8.33v1.56a4.36,4.36,0,0,0,.32,2.15,1.49,1.49,0,0,0,1.27.44h.46v1q-1.25-.09-2-.12l-1.3,0-1.2,0-2.19.12v-1h.37q1.83,0,1.84-3.59v-.81l.06-3.64q0-.4,0-1c0-.4,0-.67,0-.81a3.54,3.54,0,0,0-.23-1.57.89.89,0,0,0-.83-.38l-.35,0-.49.05-.15-.93q1.16-.22,2.32-.56T391.76,229.6Zm-1.59-6.93,1,.78a2.37,2.37,0,0,1,.6.62,1.21,1.21,0,0,1,.19.65,1.06,1.06,0,0,1-.15.58,2.48,2.48,0,0,1-.58.57l-1.1.84-1-.81a3,3,0,0,1-.62-.63,1.08,1.08,0,0,1-.19-.61,1.07,1.07,0,0,1,.15-.57,2.33,2.33,0,0,1,.6-.58Z"/><path d="M400.44,229.6l-.18,2.47a16.61,16.61,0,0,1,2.89-1.75,5.64,5.64,0,0,1,2.26-.54,4.13,4.13,0,0,1,3.25,1.22,5.36,5.36,0,0,1,1.09,3.67s0,.44,0,1.3,0,1.71,0,2.56q0,.54,0,1.36c0,.54,0,.92,0,1.11a5,5,0,0,0,.29,2.15,1.19,1.19,0,0,0,1.12.5h.35v1l-2-.12-1.13,0q-.71,0-1.53,0t-1.68.11v-1h.22q1.88,0,1.91-3.45c0-.13,0-.23,0-.29l0-3.16v-.53a6.91,6.91,0,0,0-.63-3.61,2.49,2.49,0,0,0-2.18-.89,5.26,5.26,0,0,0-1.89.4,11.13,11.13,0,0,0-2.2,1.2q-.06,1.53-.09,2.89t0,2.46v2a6.33,6.33,0,0,0,.29,2.46,1.17,1.17,0,0,0,1.13.52h.38v1l-2-.12-1.2,0-1.16,0-2,.12v-1H396q1.84,0,1.85-3.58c0-.35,0-.63,0-.82l0-3.61v-1.46a5.12,5.12,0,0,0-.22-1.89.82.82,0,0,0-.81-.45l-.3,0-.39.09L396,231a18.45,18.45,0,0,0,2.22-.56A24.27,24.27,0,0,0,400.44,229.6Z"/><path d="M417.9,229.76q-.1,2.89-.16,5.06t-.06,3a9,9,0,0,0,.65,4.2,2.4,2.4,0,0,0,2.22,1.05,4.74,4.74,0,0,0,1.74-.38,13.41,13.41,0,0,0,2.18-1.16q0-2.27.07-3.74t0-2.16v-1a5.25,5.25,0,0,0-.31-2.33,1.32,1.32,0,0,0-1.19-.47h-.32l-.35,0-.09-.94q1.25-.09,2.47-.28t2.38-.47q-.09,2.52-.13,4.49t0,3.45q0,.6,0,1.51t0,1.2a4.36,4.36,0,0,0,.24,1.79.92.92,0,0,0,.88.43l.35,0a4.57,4.57,0,0,0,.52-.12l.12.91-4.49,1.13-.06-2.19a16,16,0,0,1-2.79,1.77,5.25,5.25,0,0,1-2.19.56,4.2,4.2,0,0,1-3.15-1.16,4.44,4.44,0,0,1-1.13-3.24q0-.53,0-2.22,0-.71,0-1.1l0-1.65c0-.28,0-.63,0-1.05s0-.72,0-.88a4.27,4.27,0,0,0-.21-1.68.81.81,0,0,0-.79-.41l-.41,0-.49.06-.1-1q1.06-.18,2.19-.43T417.9,229.76Z"/><path d="M438.69,229.77a6.9,6.9,0,0,1,5.15,2.08,7.09,7.09,0,0,1,2,5.16,8.08,8.08,0,0,1-2.15,5.71,6.94,6.94,0,0,1-5.3,2.32,6.84,6.84,0,0,1-5.17-2.12,7.45,7.45,0,0,1-2-5.36,7.64,7.64,0,0,1,2.2-5.51A7.07,7.07,0,0,1,438.69,229.77Zm-.38,1.55a3.93,3.93,0,0,0-3.17,1.44,5.84,5.84,0,0,0-1.2,3.86,8.69,8.69,0,0,0,1.33,5,4,4,0,0,0,3.47,1.93,4,4,0,0,0,3.29-1.53,6.48,6.48,0,0,0,1.23-4.17,7.63,7.63,0,0,0-1.39-4.73A4.28,4.28,0,0,0,438.3,231.32Z"/><path d="M452.23,229.76q-.1,2.89-.16,5.06t-.06,3a9,9,0,0,0,.65,4.2,2.4,2.4,0,0,0,2.22,1.05,4.74,4.74,0,0,0,1.74-.38,13.41,13.41,0,0,0,2.18-1.16q0-2.27.07-3.74t0-2.16v-1a5.25,5.25,0,0,0-.31-2.33,1.32,1.32,0,0,0-1.19-.47h-.32l-.35,0-.09-.94q1.25-.09,2.47-.28t2.38-.47q-.09,2.52-.13,4.49t0,3.45q0,.6,0,1.51t0,1.2a4.36,4.36,0,0,0,.24,1.79.92.92,0,0,0,.88.43l.35,0a4.54,4.54,0,0,0,.52-.12l.12.91-4.49,1.13-.06-2.19a16,16,0,0,1-2.79,1.77,5.25,5.25,0,0,1-2.19.56,4.2,4.2,0,0,1-3.15-1.16,4.44,4.44,0,0,1-1.13-3.24q0-.53,0-2.22,0-.71,0-1.1l0-1.65c0-.28,0-.63,0-1.05s0-.72,0-.88a4.27,4.27,0,0,0-.21-1.68.81.81,0,0,0-.79-.41l-.41,0-.49.06-.1-1q1.06-.18,2.19-.43T452.23,229.76Z"/><path d="M475.43,230.38a17.2,17.2,0,0,0,.1,1.81q.1.91.27,1.84l-1.12.18a3.6,3.6,0,0,0-1-2.28,3.11,3.11,0,0,0-2.22-.75,3,3,0,0,0-2,.67,2.12,2.12,0,0,0-.79,1.7q0,1.63,3.47,2.59l.93.25a5.22,5.22,0,0,1,2.54,1.38,3.41,3.41,0,0,1,.8,2.36,4.41,4.41,0,0,1-1.69,3.55,6.54,6.54,0,0,1-4.32,1.4,9.66,9.66,0,0,1-2-.21,12.37,12.37,0,0,1-2-.62c0-.1,0-.2,0-.31s0-.28,0-.5a14.44,14.44,0,0,0-.08-1.46q-.08-.79-.24-1.67l1.1-.27a4.56,4.56,0,0,0,1.15,2.73,3.44,3.44,0,0,0,2.53.91,3.86,3.86,0,0,0,2.41-.71,2.22,2.22,0,0,0,.94-1.85q0-1.59-3.12-2.53l-.46-.15a7,7,0,0,1-3.14-1.66,3.73,3.73,0,0,1-.91-2.62,3.9,3.9,0,0,1,1.5-3.13,5.83,5.83,0,0,1,3.84-1.24,9.23,9.23,0,0,1,1.57.15A18.21,18.21,0,0,1,475.43,230.38Z"/><path d="M492.89,221.6h1.87v30.15h-1.87Z"/><path d="M515,229.42l-.12,2.36a11.46,11.46,0,0,1,2.5-1.36,6.55,6.55,0,0,1,2.28-.43,5.11,5.11,0,0,1,4.06,1.94,7.19,7.19,0,0,1,1.63,4.81,8,8,0,0,1-2.08,5.85,7.73,7.73,0,0,1-5.76,2.11,6.87,6.87,0,0,1-1.37-.14,8.38,8.38,0,0,1-1.37-.4v5.26q0,1.74,2.55,1.77h0v1.06q-1-.07-1.88-.11t-1.71,0l-1.27,0-2.34.12v-1.06a5.62,5.62,0,0,0,1.29-.1.9.9,0,0,0,.52-.35q.38-.66.41-6V243l0-3.34v-4.86a7.11,7.11,0,0,0-.21-2.28.83.83,0,0,0-.83-.46l-.35,0-.44.09-.15-.9a22.91,22.91,0,0,0,2.39-.82A21.6,21.6,0,0,0,515,229.42Zm-.21,13.09a10,10,0,0,0,1.77.66,6.55,6.55,0,0,0,1.68.23,4.29,4.29,0,0,0,3.42-1.43,5.91,5.91,0,0,0,1.24-4,7.28,7.28,0,0,0-1.22-4.42,3.81,3.81,0,0,0-3.21-1.66,6.26,6.26,0,0,0-1.79.28,8.13,8.13,0,0,0-1.8.79q-.06,2.15-.09,4.06t0,3.5c0,.19,0,.5,0,.93S514.8,242.25,514.8,242.51Z"/><path d="M532.14,229.6q-.1,1-.16,2t-.09,2.17a12.74,12.74,0,0,1,2.2-3,3.07,3.07,0,0,1,2.08-.93,1.87,1.87,0,0,1,1.32.45,1.57,1.57,0,0,1,.49,1.21,1.44,1.44,0,0,1-.32.93.94.94,0,0,1-.74.39,2.06,2.06,0,0,1-.82-.29,2.14,2.14,0,0,0-.95-.29,2.33,2.33,0,0,0-1.53.67A8.68,8.68,0,0,0,532,235v1.62q0,2.36,0,3.82a15.75,15.75,0,0,0,.11,1.86,1.45,1.45,0,0,0,.57,1,2.88,2.88,0,0,0,1.48.28h.43v1q-1.15-.09-2-.13t-1.52,0q-.86,0-1.76,0t-1.89.13v-1h.34a1.72,1.72,0,0,0,1.46-.52,4.7,4.7,0,0,0,.38-2.4v-6.33a5.81,5.81,0,0,0-.22-2,.82.82,0,0,0-.81-.46h-.25l-.44.05-.18-.91q1-.24,2.15-.59T532.14,229.6Z"/><path d="M552.07,236.41h-7.18q-.84,0-1.55,0t-1.31.09v.54a6.71,6.71,0,0,0,1.33,4.46,4.65,4.65,0,0,0,3.76,1.58,6.47,6.47,0,0,0,2.12-.36,10.23,10.23,0,0,0,2.22-1.13l.57.94a12.45,12.45,0,0,1-3,1.87,7.67,7.67,0,0,1-3,.63,6.09,6.09,0,0,1-4.71-2,7.47,7.47,0,0,1-1.86-5.23,8.58,8.58,0,0,1,1.94-5.71,6,6,0,0,1,4.74-2.31,5.28,5.28,0,0,1,4.15,1.74A8,8,0,0,1,552.07,236.41Zm-2.72-1.55a6.15,6.15,0,0,0-1.34-2.77,2.84,2.84,0,0,0-2.15-1,3.13,3.13,0,0,0-2.42,1.13,5.89,5.89,0,0,0-1.32,3.06q2.92,0,4.59-.1A14.66,14.66,0,0,0,549.35,234.87Z"/><path d="M565.29,241.74l.74,1.12a12.28,12.28,0,0,1-2.81,1.65,7,7,0,0,1-2.62.56,6,6,0,0,1-4.71-2.07A8,8,0,0,1,562,229.74a5.85,5.85,0,0,1,2.63.48,1.47,1.47,0,0,1,.93,1.33,1.61,1.61,0,0,1-.37,1.07,1.1,1.1,0,0,1-.86.45,6.47,6.47,0,0,1-1.36-.74,4.38,4.38,0,0,0-2.29-.74,3.72,3.72,0,0,0-3,1.38,5.75,5.75,0,0,0-1.13,3.75,7.18,7.18,0,0,0,1.36,4.66,4.6,4.6,0,0,0,3.78,1.67,5.43,5.43,0,0,0,1.79-.31A7.48,7.48,0,0,0,565.29,241.74Z"/><path d="M572.37,229.6q0,.56,0,1.59-.19,5.92-.19,8.33v1.56a4.36,4.36,0,0,0,.32,2.15,1.49,1.49,0,0,0,1.27.44h.46v1q-1.25-.09-2-.12l-1.3,0-1.2,0-2.19.12v-1h.37q1.83,0,1.84-3.59v-.81l.06-3.64c0-.26,0-.6,0-1s0-.67,0-.81a3.53,3.53,0,0,0-.23-1.57.89.89,0,0,0-.83-.38l-.35,0-.49.05-.15-.93q1.16-.22,2.32-.56T572.37,229.6Zm-1.59-6.93,1,.78a2.37,2.37,0,0,1,.6.62,1.21,1.21,0,0,1,.19.65,1.06,1.06,0,0,1-.16.58,2.48,2.48,0,0,1-.58.57l-1.1.84-1-.81a2.94,2.94,0,0,1-.62-.63,1.09,1.09,0,0,1-.19-.61,1.06,1.06,0,0,1,.15-.57,2.34,2.34,0,0,1,.6-.58Z"/><path d="M586.39,230.38a17.47,17.47,0,0,0,.1,1.81c.06.61.15,1.22.27,1.84l-1.12.18a3.59,3.59,0,0,0-1-2.28,3.11,3.11,0,0,0-2.22-.75,3,3,0,0,0-2,.67,2.13,2.13,0,0,0-.79,1.7q0,1.63,3.47,2.59l.93.25a5.22,5.22,0,0,1,2.54,1.38,3.4,3.4,0,0,1,.8,2.36,4.41,4.41,0,0,1-1.69,3.55,6.54,6.54,0,0,1-4.32,1.4,9.67,9.67,0,0,1-2-.21,12.37,12.37,0,0,1-2-.62c0-.1,0-.2,0-.31s0-.28,0-.5q0-.68-.08-1.46t-.24-1.67l1.1-.27a4.54,4.54,0,0,0,1.15,2.73,3.43,3.43,0,0,0,2.53.91,3.86,3.86,0,0,0,2.41-.71,2.22,2.22,0,0,0,.93-1.85q0-1.59-3.12-2.53l-.46-.15a7,7,0,0,1-3.14-1.66,3.73,3.73,0,0,1-.9-2.62,3.89,3.89,0,0,1,1.5-3.13,5.82,5.82,0,0,1,3.84-1.24,9.24,9.24,0,0,1,1.57.15A18.2,18.2,0,0,1,586.39,230.38Z"/><path d="M594.68,229.6q0,.56,0,1.59-.19,5.92-.19,8.33v1.56a4.36,4.36,0,0,0,.32,2.15,1.49,1.49,0,0,0,1.27.44h.46v1q-1.25-.09-2-.12l-1.29,0-1.2,0-2.19.12v-1h.37q1.83,0,1.84-3.59v-.81l.06-3.64q0-.4,0-1c0-.4,0-.67,0-.81a3.54,3.54,0,0,0-.23-1.57.89.89,0,0,0-.83-.38l-.35,0-.49.05L590,231q1.16-.22,2.32-.56T594.68,229.6Zm-1.59-6.93,1,.78a2.37,2.37,0,0,1,.6.62,1.22,1.22,0,0,1,.19.65,1.06,1.06,0,0,1-.15.58,2.49,2.49,0,0,1-.58.57l-1.1.84-1-.81a3,3,0,0,1-.62-.63,1.11,1.11,0,0,1,0-1.18,2.32,2.32,0,0,1,.6-.58Z"/><path d="M606.28,229.77a6.9,6.9,0,0,1,5.15,2.08,7.09,7.09,0,0,1,2,5.16,8.08,8.08,0,0,1-2.15,5.71A6.94,6.94,0,0,1,606,245a6.84,6.84,0,0,1-5.18-2.12,7.45,7.45,0,0,1-2-5.36A7.64,7.64,0,0,1,601,232,7.07,7.07,0,0,1,606.28,229.77Zm-.38,1.55a3.93,3.93,0,0,0-3.17,1.44,5.83,5.83,0,0,0-1.2,3.86,8.68,8.68,0,0,0,1.33,5,4,4,0,0,0,3.47,1.93,4,4,0,0,0,3.29-1.53,6.48,6.48,0,0,0,1.23-4.17,7.63,7.63,0,0,0-1.39-4.73A4.28,4.28,0,0,0,605.9,231.32Z"/><path d="M620,229.6l-.18,2.47a16.56,16.56,0,0,1,2.89-1.75,5.64,5.64,0,0,1,2.26-.54A4.13,4.13,0,0,1,628.2,231a5.36,5.36,0,0,1,1.09,3.67V236q0,1.28,0,2.56,0,.54,0,1.36c0,.54,0,.92,0,1.11a5,5,0,0,0,.29,2.15,1.19,1.19,0,0,0,1.12.5H631v1l-2-.12-1.13,0q-.71,0-1.53,0t-1.68.11v-1h.22q1.89,0,1.91-3.45c0-.13,0-.23,0-.29l0-3.16v-.53a6.91,6.91,0,0,0-.63-3.61,2.49,2.49,0,0,0-2.18-.89,5.26,5.26,0,0,0-1.89.4,11.12,11.12,0,0,0-2.2,1.2q-.06,1.53-.09,2.89t0,2.46v2a6.33,6.33,0,0,0,.29,2.46,1.17,1.17,0,0,0,1.13.52h.38v1l-2-.12-1.2,0-1.16,0-2,.12v-1h.28q1.84,0,1.86-3.58c0-.35,0-.63,0-.82l0-3.61v-1.46a5.11,5.11,0,0,0-.22-1.89.82.82,0,0,0-.81-.45l-.3,0-.39.09-.18-.91a18.46,18.46,0,0,0,2.22-.56A24.22,24.22,0,0,0,620,229.6Z"/><path d="M647,221.6h1.87v30.15H647Z"/><path d="M669.3,229.6c0,.4-.07.79-.1,1.17s0,.76-.06,1.14a20,20,0,0,1,3.12-1.7,5.94,5.94,0,0,1,2.15-.43,3.79,3.79,0,0,1,2.13.57,4.49,4.49,0,0,1,1.49,1.81,21.67,21.67,0,0,1,3.22-1.85,5.77,5.77,0,0,1,2.25-.54,3.65,3.65,0,0,1,3.13,1.31,7.18,7.18,0,0,1,1,4.24v.31l-.06,4.84c0,.49,0,.94,0,1.34v.06a2.12,2.12,0,0,0,.32,1.4,1.82,1.82,0,0,0,1.3.34h.34v1l-2.13-.12-1.15,0-1.17,0-2,.12v-1l.22,0h.37a1.28,1.28,0,0,0,1.26-.61,8.25,8.25,0,0,0,.32-3v-2.15c0-.35,0-.82,0-1.4s0-1,0-1.22a4.52,4.52,0,0,0-.68-2.77,2.51,2.51,0,0,0-2.11-.88,4.75,4.75,0,0,0-1.65.37,18.2,18.2,0,0,0-2.37,1.18l-.12,7.26v1.21a2.54,2.54,0,0,0,.33,1.64,2.06,2.06,0,0,0,1.36.32h.18v1l-1.94-.11q-.78,0-1.34,0t-1.31,0q-.75,0-1.57.11l0-1a3.32,3.32,0,0,0,1.34-.17,1.1,1.1,0,0,0,.44-.79,18.89,18.89,0,0,0,.16-2.46q.05-2,.05-5a4.34,4.34,0,0,0-.66-2.67,2.49,2.49,0,0,0-2.08-.83,4.87,4.87,0,0,0-1.66.36,17.13,17.13,0,0,0-2.32,1.13q-.09,2.4-.12,4.17t0,3.21a6.64,6.64,0,0,0,.3,2.69,1.47,1.47,0,0,0,1.27.44h.49v1q-.91-.07-1.77-.11t-1.6,0q-.65,0-1.44,0t-1.68.11v-1h.28q1.84,0,1.86-3.58c0-.35,0-.63,0-.82l0-3.61v-1.46a5.11,5.11,0,0,0-.22-1.89.82.82,0,0,0-.81-.45l-.3,0-.39.09-.18-.91q1.09-.3,2.19-.65T669.3,229.6Z"/><path d="M704.08,236.41h-7.18q-.84,0-1.55,0t-1.31.09v.54a6.71,6.71,0,0,0,1.33,4.46,4.65,4.65,0,0,0,3.76,1.58,6.47,6.47,0,0,0,2.12-.36,10.25,10.25,0,0,0,2.22-1.13l.57.94a12.47,12.47,0,0,1-3,1.87,7.67,7.67,0,0,1-3,.63,6.09,6.09,0,0,1-4.71-2,7.47,7.47,0,0,1-1.85-5.23,8.57,8.57,0,0,1,1.94-5.71,6,6,0,0,1,4.74-2.31,5.28,5.28,0,0,1,4.15,1.74A8,8,0,0,1,704.08,236.41Zm-2.72-1.55a6.14,6.14,0,0,0-1.34-2.77,2.84,2.84,0,0,0-2.15-1,3.13,3.13,0,0,0-2.42,1.13,5.91,5.91,0,0,0-1.32,3.06q2.92,0,4.59-.1A14.63,14.63,0,0,0,701.35,234.87Z"/><path d="M719.56,221.82v.26q-.18,5.23-.28,10.1l0,2.3q0,.81-.05,2.16t0,3v.57a14.16,14.16,0,0,0,.16,2.85q.16.55.63.55a3.05,3.05,0,0,0,.58-.06,4.12,4.12,0,0,0,.63-.18l.24.93a12.3,12.3,0,0,1-2,.6,10,10,0,0,1-2,.2H717q-.1-.63-.16-1.17c0-.36-.05-.7-.05-1a16,16,0,0,1-2.77,1.49,6,6,0,0,1-2.12.41,5.2,5.2,0,0,1-4.2-2,8.68,8.68,0,0,1,.46-10.68,7.18,7.18,0,0,1,5.39-2.13,9.6,9.6,0,0,1,1.58.14,14.54,14.54,0,0,1,1.8.44q0-.13,0-.4.07-2.58.07-4.64a2.25,2.25,0,0,0-.29-1.31,1.11,1.11,0,0,0-.95-.38,2.23,2.23,0,0,0-.37,0l-.6.11-.18-1q1.09-.19,2.31-.49T719.56,221.82Zm-2.71,10.73a9.14,9.14,0,0,0-1.87-.82,6.19,6.19,0,0,0-1.78-.26,4.41,4.41,0,0,0-3.5,1.41,5.87,5.87,0,0,0-1.24,4,7.06,7.06,0,0,0,1.21,4.35,3.86,3.86,0,0,0,3.25,1.61,5.58,5.58,0,0,0,1.74-.31,12.43,12.43,0,0,0,2.1-1Z"/><path d="M727.85,229.6q0,.56,0,1.59-.19,5.92-.19,8.33v1.56a4.38,4.38,0,0,0,.32,2.15,1.49,1.49,0,0,0,1.27.44h.46v1q-1.25-.09-2-.12l-1.3,0-1.2,0-2.19.12v-1h.37q1.83,0,1.84-3.59v-.81l.06-3.64q0-.4,0-1c0-.4,0-.67,0-.81a3.54,3.54,0,0,0-.23-1.57.89.89,0,0,0-.83-.38l-.35,0-.49.05-.15-.93q1.16-.22,2.32-.56T727.85,229.6Zm-1.59-6.93,1,.78a2.34,2.34,0,0,1,.6.62,1.21,1.21,0,0,1,.19.65,1.06,1.06,0,0,1-.15.58,2.49,2.49,0,0,1-.58.57l-1.1.84-1-.81a2.94,2.94,0,0,1-.62-.63,1.12,1.12,0,0,1,0-1.18,2.34,2.34,0,0,1,.6-.58Z"/><path d="M743.19,241.74l.74,1.12a12.24,12.24,0,0,1-2.81,1.65,7,7,0,0,1-2.62.56,6,6,0,0,1-4.71-2.07,8,8,0,0,1,6.12-13.26,5.86,5.86,0,0,1,2.64.48,1.47,1.47,0,0,1,.93,1.33,1.61,1.61,0,0,1-.37,1.07,1.1,1.1,0,0,1-.86.45,6.52,6.52,0,0,1-1.36-.74,4.37,4.37,0,0,0-2.29-.74,3.73,3.73,0,0,0-3,1.38,5.75,5.75,0,0,0-1.12,3.75,7.18,7.18,0,0,0,1.36,4.66,4.6,4.6,0,0,0,3.78,1.67,5.42,5.42,0,0,0,1.79-.31A7.46,7.46,0,0,0,743.19,241.74Z"/><path d="M750.27,229.6q0,.56,0,1.59-.19,5.92-.19,8.33v1.56a4.35,4.35,0,0,0,.32,2.15,1.49,1.49,0,0,0,1.27.44h.46v1q-1.25-.09-2-.12l-1.29,0-1.2,0-2.19.12v-1h.37q1.83,0,1.84-3.59v-.81l.06-3.64c0-.26,0-.6,0-1s0-.67,0-.81a3.53,3.53,0,0,0-.23-1.57.89.89,0,0,0-.83-.38l-.35,0-.49.05-.15-.93q1.16-.22,2.32-.56T750.27,229.6Zm-1.59-6.93,1,.78a2.41,2.41,0,0,1,.6.62,1.22,1.22,0,0,1,.19.65,1.06,1.06,0,0,1-.16.58,2.48,2.48,0,0,1-.58.57l-1.1.84-1-.81a3,3,0,0,1-.62-.63,1.09,1.09,0,0,1-.19-.61,1.07,1.07,0,0,1,.15-.57,2.32,2.32,0,0,1,.6-.58Z"/><path d="M759,229.6l-.18,2.47a16.66,16.66,0,0,1,2.89-1.75,5.65,5.65,0,0,1,2.26-.54,4.13,4.13,0,0,1,3.25,1.22,5.36,5.36,0,0,1,1.09,3.67s0,.44,0,1.3,0,1.71,0,2.56q0,.54,0,1.36c0,.54,0,.92,0,1.11a5,5,0,0,0,.29,2.15,1.19,1.19,0,0,0,1.12.5H770v1l-2-.12-1.13,0q-.71,0-1.53,0t-1.68.11v-1h.22q1.88,0,1.91-3.45c0-.13,0-.23,0-.29l0-3.16v-.53a6.91,6.91,0,0,0-.63-3.61,2.49,2.49,0,0,0-2.18-.89,5.27,5.27,0,0,0-1.89.4,11.14,11.14,0,0,0-2.2,1.2q-.06,1.53-.09,2.89t0,2.46v2a6.33,6.33,0,0,0,.29,2.46,1.17,1.17,0,0,0,1.13.52h.38v1l-2-.12-1.2,0-1.16,0-2,.12v-1h.28q1.84,0,1.85-3.58c0-.35,0-.63,0-.82l0-3.61v-1.46a5.13,5.13,0,0,0-.22-1.89.82.82,0,0,0-.81-.45l-.3,0-.39.09-.18-.91a18.44,18.44,0,0,0,2.21-.56Q757.8,230.1,759,229.6Z"/><path d="M784.71,236.41h-7.18q-.84,0-1.55,0t-1.31.09v.54a6.71,6.71,0,0,0,1.33,4.46,4.65,4.65,0,0,0,3.76,1.58,6.47,6.47,0,0,0,2.12-.36,10.25,10.25,0,0,0,2.22-1.13l.57.94a12.47,12.47,0,0,1-3,1.87,7.67,7.67,0,0,1-3,.63,6.09,6.09,0,0,1-4.71-2,7.47,7.47,0,0,1-1.85-5.23,8.57,8.57,0,0,1,1.94-5.71,6,6,0,0,1,4.74-2.31,5.28,5.28,0,0,1,4.15,1.74A8,8,0,0,1,784.71,236.41ZM782,234.87a6.14,6.14,0,0,0-1.34-2.77,2.84,2.84,0,0,0-2.15-1,3.13,3.13,0,0,0-2.42,1.13,5.91,5.91,0,0,0-1.32,3.06q2.92,0,4.59-.1A14.63,14.63,0,0,0,782,234.87Z"/><path d="M799.37,71h.45a3,3,0,0,0,1.2-.18,1.12,1.12,0,0,0,.56-.63,7.38,7.38,0,0,0,.17-1.66q0-1.32,0-4.88v-7h-2.1a4.58,4.58,0,0,0-2.62.54,3.2,3.2,0,0,0-1,2.06l-1.15-.24q.28-1.21.43-2.31a21,21,0,0,0,.19-2.18,7.24,7.24,0,0,0,1.7.23q1.17.06,5.15.06H807q2.25,0,3.13-.07a4.57,4.57,0,0,0,1.3-.24v.38q0,1,.08,2t.24,2.15l-1.1.17a3.11,3.11,0,0,0-.84-2,4.22,4.22,0,0,0-2.5-.52H805.2q0,2,0,3.85t0,4.41v2.28q0,1.61.07,2.26a3,3,0,0,0,.23,1,1,1,0,0,0,.57.44,3.55,3.55,0,0,0,1.1.13h.43v1.1l-.9,0q-2.39-.11-3.27-.11-.64,0-1.63,0l-2.37.11Z"/><path d="M824.12,66.71l3.2-7.2q1-2.3,1.34-3.24a4.82,4.82,0,0,0,.33-1.43v-.12h.37q1.87.08,2.69.08.45,0,1.87-.06l.9,0v1.1a3,3,0,0,0-1.67.32,1.64,1.64,0,0,0-.41,1.33q0,.49,0,1.63t.13,2.5l.17,3q.21,3.25.3,4.3a9.31,9.31,0,0,0,.2,1.4.89.89,0,0,0,.5.58,2.37,2.37,0,0,0,1.05.2h.3v1.1l-2-.09-1.81,0-1.26,0-2.34.1V71h.38a2.12,2.12,0,0,0,1.39-.34,1.56,1.56,0,0,0,.38-1.21c0-.2,0-.4,0-.6s0-.47,0-.8l-.5-9.74-4.42,10q-.64,1.44-.89,2.19a10.79,10.79,0,0,0-.39,1.43H822.6a10.34,10.34,0,0,0-.31-1.07q-.19-.57-.6-1.53l-4.47-10.73q-.35,4-.54,6.64t-.19,3.64a2.82,2.82,0,0,0,.35,1.71,1.83,1.83,0,0,0,1.4.41h.34v1.1l-1.95-.1-1.3,0-.84,0-2.18.1V71h.09l.44,0q1.61,0,2-4.49.1-1.22.16-1.93l.28-2.93q.15-1.73.23-2.89t.09-1.48a1.67,1.67,0,0,0-.35-1.23,2,2,0,0,0-1.35-.32h-.32v-1.1l1.51.07,1.34,0q.49,0,2.05-.06l1,0v.1q0,1,2.86,7.63Z"/><path d="M451.13,60.19q0,1-.1,3.15t-.1,3.15q0,6.71.6,14.21t1.9,16.52l-9.91,1.7Q441.92,84,430.81,75.76T401.48,67.5q-23.22,0-36,14.46t-12.76,40.89q0,28.53,14.46,45.44t38.69,16.92q15.21,0,26-6.91t17.47-21l8.81,4.1q-4,7.91-7,15.47a155.64,155.64,0,0,0-5.1,15,148.38,148.38,0,0,1-23.67,7.46,103.29,103.29,0,0,1-22.27,2.55q-34.83,0-56.46-20.62T322,127.36q0-32.83,22.67-54.1T402.18,52a149.92,149.92,0,0,1,24.57,2A153,153,0,0,1,451.13,60.19Z"/><path d="M470.25,189.32c.6.07,1.2.12,1.8.15s1.5,0,2.7,0q8.41,0,11.06-6.11t2.65-29.93q0-6-.1-9.31t-.3-6.31l-.2-24.22V78.41q0-7.71-3.2-11t-10.61-3.3h-2V54.79q8.21.7,15.17,1t13,.3q9.31,0,21.27-.65t14.36-.65q25.72,0,40.44,11.31T591,96.83q0,20.42-15.21,32.38t-41.74,12q-4.41,0-15.71-1l-3.2-.3V164.7q0,16.32,3.15,20.37t12.66,4.05h3.5v9q-9.91-.6-18.52-.9t-15.92-.3q-3.21,0-10.61.3t-19.12.9ZM514.89,128q3.7.6,6.86.85t5.86.25q17.42,0,26.63-8t9.21-22.77q0-13.81-8.71-21.77t-23.82-8q-3.5,0-7.16.3T515.39,70q-.3,12.51-.4,25.32T514.89,128Z"/><path d="M693.87,153.68l26.22-59.06q8.31-18.82,11-26.58t2.7-11.76v-1q1,0,3,.1,15.31.7,22,.7,3.7,0,15.31-.5l7.41-.3v9q-10.31,0-13.66,2.6t-3.35,10.91q0,4,.4,13.36t1.1,20.47l1.4,24.32q1.7,26.63,2.5,35.28a77.24,77.24,0,0,0,1.6,11.46,7.28,7.28,0,0,0,4.1,4.75,19.3,19.3,0,0,0,8.61,1.65h2.5l-.1,9q-8.51-.5-16.52-.75t-14.81-.25q-3.9,0-10.31.2t-19.22.8v-9h3.1q8.21,0,11.36-2.8t3.15-9.91q0-2.4,0-5T743,164.9L738.91,85l-36.23,82q-5.21,11.81-7.31,18a90.43,90.43,0,0,0-3.2,11.76H681.36a82.36,82.36,0,0,0-2.5-8.81q-1.6-4.7-4.9-12.51l-36.64-88q-2.9,32.43-4.45,54.45t-1.55,29.83q0,10.71,2.9,14.06t11.51,3.35h2.8v9q-9.81-.6-16-.8t-10.66-.2q-2.4,0-6.86.15t-17.87.85l-.1-9a4.28,4.28,0,0,1,.7.1q2.6.3,3.6.3,13.21,0,16.12-36.84.8-10,1.3-15.82l2.3-24q1.2-14.21,1.9-23.72T623.7,77q0-7.41-2.85-10.06T609.78,64.3h-2.6v-9q6.4.4,12.36.6t11,.2q4,0,16.82-.5l8.21-.3v.8q0,7.81,23.42,62.56Q688.36,140.67,693.87,153.68Z"/><polygon class="cls-1" points="40.49 175.55 39.95 170.89 39.65 166.21 39.6 161.51 39.6 156.82 39.85 152.13 40.32 147.46 41 142.82 41.85 138.2 42.91 133.63 44.14 129.1 45.59 124.64 47.2 120.23 48.9 116.16 48.94 116.07 47.95 120.66 47.17 125.29 46.64 129.95 46.2 134.64 46.2 139.33 46.5 144.02 46.93 148.69 47.58 153.34 48.5 157.95 49.63 162.5 51 166.99 52.61 171.4 54.42 175.73 56.48 179.95 58.74 184.06 61.19 188.06 63.87 191.92 66.72 195.64 69.77 199.21 73 202.62 76.39 205.86 79.96 208.91 83.67 211.78 87.53 214.46 91.51 216.95 95.61 219.24 99.8 221.35 104.07 223.3 108.41 225.1 112.81 226.7 117.28 228.13 121.81 229.39 126.38 230.46 130.99 231.34 135.63 232.05 140.29 232.58 144.97 232.91 149.66 233.4 154.36 233.4 159.05 232.79 163.72 232.38 168.38 231.79 173.01 231.01 177.6 230.04 182.15 228.9 186.65 227.57 191.1 226.06 195.48 224.38 199.79 222.52 204.03 220.5 208.18 218.32 212.24 215.95 216.21 213.45 220.06 210.77 223.81 207.95 227.44 204.98 230.96 201.87 234.35 198.62 237.61 195.25 240.74 191.75 243.71 188.11 246.55 184.37 249.22 180.52 251.75 176.56 254.11 172.5 256.31 168.36 258.35 164.13 260.22 159.83 261.9 155.45 263.43 151.01 264.77 146.51 265.92 141.96 266.9 137.37 267.69 132.74 268.31 128.09 268.74 123.42 268.97 118.73 268.97 114.03 268.9 109.34 268.57 104.66 268.06 100 267.37 95.35 266.49 90.74 265.44 86.17 265.04 84.62 266.8 88.97 268.41 93.38 269.84 97.85 271.13 102.37 272.27 106.92 273.24 111.51 274.06 116.13 274.73 120.78 275.24 125.44 275.59 130.13 275.57 134.81 275.57 139.51 275.67 144.2 275.38 148.88 274.93 153.56 274.32 158.21 273.55 162.84 272.63 167.44 271.56 172.01 270.32 176.54 268.93 181.02 267.4 185.46 265.7 189.84 263.87 194.16 261.88 198.41 259.77 202.6 257.49 206.71 255.09 210.74 252.56 214.69 249.88 218.54 247.07 222.3 244.13 225.97 241.09 229.53 237.91 232.99 234.63 236.34 231.22 239.57 227.72 242.7 224.11 245.7 220.4 248.57 216.59 251.31 212.69 253.92 208.71 256.41 204.63 258.74 200.47 260.91 196.22 262.91 191.89 264.7 187.48 266.33 183.02 267.78 178.5 269.03 173.92 270.09 169.31 270.94 164.66 271.62 160 272.11 155.31 272.45 150.62 272.45 145.92 272.33 141.24 272.03 136.57 271.52 131.94 270.8 127.33 269.91 122.77 268.81 118.25 267.54 113.8 266.05 109.41 264.38 105.09 262.55 100.85 260.53 96.71 258.33 92.65 255.96 88.72 253.41 84.87 250.71 81.16 247.84 77.56 244.82 74.09 241.67 70.77 238.35 67.58 234.9 64.54 231.33 61.66 227.62 58.92 223.81 56.36 219.88 53.97 215.84 51.74 211.71 49.7 207.48 47.83 203.18 46.13 198.8 44.64 194.35 43.33 189.84 42.21 185.29 41.28 180.69 40.54 176.05 40.49 175.55"/><polygon class="cls-2" points="0.43 128.26 0.94 123.59 1.63 118.95 2.54 114.35 3.63 109.78 4.89 105.27 6.37 100.82 8.02 96.43 9.84 92.11 11.86 87.88 14.05 83.73 16.4 79.68 18.92 75.73 21.61 71.9 24.46 68.19 27.45 64.59 30.6 61.13 33.88 57.8 37.3 54.61 40.85 51.58 44.52 48.69 48.32 45.97 52.23 43.41 56.23 41.01 60.33 38.79 64.53 36.75 68.8 34.88 73.15 33.2 77.56 31.69 82.04 30.39 86.56 29.26 91.13 28.34 95.73 27.61 100.36 27.08 105 26.73 109.66 26.59 114.32 26.65 118.97 26.89 123.61 27.34 128.22 28 132.8 28.83 137.35 29.87 141.84 31.1 146.28 32.51 150.66 34.12 154.97 35.9 159.2 37.86 163.34 40.01 167.39 42.34 171.34 44.83 175.18 47.48 178.91 50.29 182.52 53.26 186 56.39 189.35 59.65 192.55 63.05 195.62 66.58 198.52 70.25 199.9 72.09 196.44 68.95 192.84 65.97 189.1 63.17 185.21 60.58 181.2 58.2 177.08 56.02 172.84 54.05 168.52 52.31 164.11 50.78 159.63 49.51 155.09 48.45 150.51 47.62 145.88 47.05 141.24 46.7 136.58 46.59 131.92 46.74 127.28 47.13 122.66 47.74 118.08 48.59 113.55 49.69 109.09 51.02 104.69 52.57 100.38 54.35 96.16 56.35 92.06 58.57 88.06 60.97 84.16 63.55 80.36 66.25 76.67 69.13 73.1 72.14 69.66 75.3 66.33 78.59 63.14 82.01 60.1 85.56 57.18 89.22 54.43 93.01 51.81 96.89 49.36 100.88 47.06 104.97 44.93 109.14 42.96 113.39 41.18 117.73 39.55 122.13 38.09 126.58 36.82 131.1 35.73 135.66 34.83 140.27 34.1 144.9 33.55 149.56 33.19 154.24 33 158.93 33.02 163.63 33.2 168.32 33.59 173 34.16 177.65 34.91 182.29 35.84 186.88 36.94 191.44 38.23 195.96 39.71 200.41 41.34 204.8 43.16 209.12 45.14 213.37 47.3 217.53 49.61 221.61 52.08 225.59 54.7 229.47 57.47 233.24 60.4 236.89 63.46 240.43 66.66 243.84 70 247.11 73.46 250.25 77.04 253.25 80.74 256.11 84.54 258.82 88.46 261.36 92.47 263.76 96.57 265.98 100.76 268.04 105.02 269.93 109.35 271.65 113.75 273.19 118.21 274.57 119.73 275 115.12 274.35 110.53 273.53 105.98 272.54 101.46 271.4 96.98 270.11 92.55 268.66 88.17 267.07 83.85 265.31 79.58 263.42 75.39 261.38 71.25 259.21 67.21 256.89 63.24 254.43 59.36 251.83 55.56 249.12 51.86 246.26 48.27 243.27 44.77 240.18 41.37 236.96 38.09 233.63 34.93 230.18 31.88 226.64 28.96 222.98 26.16 219.23 23.48 215.39 20.93 211.46 18.53 207.44 16.25 203.34 14.12 199.17 12.13 194.93 10.3 190.61 8.59 186.25 7.03 181.82 5.63 177.35 4.39 172.82 3.3 168.26 2.35 163.66 1.58 159.03 0.95 154.38 0.47 149.72 0.16 145.03 0 140.34 0.02 135.65 0.22 130.96 0.43 128.26"/><polygon class="cls-3" points="91.56 7.99 96.01 6.48 100.5 5.13 105.05 3.95 109.63 2.92 114.23 2.02 118.87 1.31 123.53 0.74 128.21 0.33 132.89 0.08 137.59 0 142.28 0.08 146.97 0.31 151.65 0.7 156.31 1.25 160.94 1.96 165.56 2.82 170.14 3.83 174.68 5.03 179.19 6.34 183.64 7.83 188.03 9.47 192.38 11.25 196.66 13.18 200.87 15.26 205.01 17.46 209.07 19.82 213.03 22.34 216.87 25.04 220.59 27.89 224.2 30.9 227.68 34.05 231.02 37.34 234.22 40.77 237.27 44.34 240.18 48.03 242.92 51.84 245.5 55.76 247.91 59.79 250.15 63.91 252.21 68.13 254.1 72.43 255.8 76.8 257.31 81.25 258.64 85.75 259.78 90.3 260.73 94.89 261.49 99.53 262.04 104.19 262.41 108.87 262.37 113.56 262.37 118.25 262.31 122.94 261.88 127.61 261.24 132.26 260.43 136.89 259.41 141.47 258.2 146 256.81 150.49 255.22 154.9 253.46 159.25 251.5 163.52 249.38 167.71 247.07 171.79 244.6 175.78 241.96 179.66 239.17 183.44 236.22 187.09 233.11 190.6 229.86 193.99 226.47 197.24 222.94 200.33 219.29 203.28 215.52 206.08 211.64 208.72 207.65 211.19 203.55 213.48 199.36 215.59 195.09 217.54 190.74 219.3 186.32 220.88 181.84 222.28 177.3 223.47 172.72 224.49 168.1 225.3 163.44 225.92 163.26 225.93 167.73 224.5 172.12 222.83 176.43 220.98 180.63 218.89 184.71 216.58 188.68 214.07 192.51 211.36 196.2 208.46 199.74 205.38 203.12 202.12 206.32 198.68 209.34 195.09 212.16 191.34 214.8 187.46 217.24 183.45 219.46 179.31 221.48 175.08 223.28 170.74 224.84 166.32 226.18 161.82 227.27 157.25 228.15 152.64 228.78 147.99 229.17 143.31 229.36 138.62 229.36 133.93 229.01 129.24 228.56 124.57 227.92 119.92 227.11 115.3 226.11 110.71 224.94 106.17 223.59 101.67 222.06 97.23 220.36 92.86 218.47 88.56 216.41 84.34 214.2 80.2 211.82 76.16 209.28 72.21 206.59 68.36 203.73 64.64 200.75 61.02 197.61 57.53 194.35 54.15 190.94 50.92 187.41 47.83 183.77 44.87 180 42.06 176.14 39.41 172.17 36.9 168.09 34.57 163.94 32.39 159.69 30.39 155.37 28.55 150.99 26.87 146.54 25.38 142.03 24.09 137.47 22.95 132.88 22 128.25 21.24 123.59 20.65 118.91 20.26 114.22 19.98 109.53 19.98 104.84 20.2 100.16 20.55 95.5 21.08 90.86 21.81 86.25 22.71 81.69 23.8 77.17 25.08 72.71 26.53 68.3 28.15 63.97 29.95 59.7 31.91 55.52 34.04 51.44 36.35 47.44 38.81 43.54 41.43 39.76 44.21 36.09 47.13 32.53 50.19 29.1 53.39 27.96 54.51 30.85 50.81 33.87 47.22 37.02 43.74 40.28 40.37 43.66 37.11 47.15 33.97 50.73 30.93 54.43 28.05 58.21 25.27 62.09 22.63 66.06 20.12 70.11 17.74 74.24 15.52 78.44 13.43 82.71 11.48 87.05 9.68 91.56 7.99"/></g></g></svg>